<?xml version="1.0" encoding="UTF-8" standalone="no"?>
<!-- Created with Inkscape (http://www.inkscape.org/) -->

<svg
   xmlns:dc="http://purl.org/dc/elements/1.1/"
   xmlns:cc="http://creativecommons.org/ns#"
   xmlns:rdf="http://www.w3.org/1999/02/22-rdf-syntax-ns#"
   xmlns:svg="http://www.w3.org/2000/svg"
   xmlns="http://www.w3.org/2000/svg"
   xmlns:sodipodi="http://sodipodi.sourceforge.net/DTD/sodipodi-0.dtd"
   xmlns:inkscape="http://www.inkscape.org/namespaces/inkscape"
   width="157.09131"
   height="140.5"
   id="svg2"
   version="1.1"
   inkscape:version="0.48.4 r9939"
   sodipodi:docname="sample2.svg">
  <defs
     id="defs4" />
  <sodipodi:namedview
     id="base"
     pagecolor="#ffffff"
     bordercolor="#666666"
     borderopacity="1.0"
     inkscape:pageopacity="0.0"
     inkscape:pageshadow="2"
     inkscape:zoom="3.959798"
     inkscape:cx="87.569706"
     inkscape:cy="69.719748"
     inkscape:document-units="px"
     inkscape:current-layer="layer1"
     showgrid="false"
     inkscape:window-width="1551"
     inkscape:window-height="876"
     inkscape:window-x="49"
     inkscape:window-y="24"
     inkscape:window-maximized="1"
     fit-margin-top="0"
     fit-margin-left="0"
     fit-margin-right="0"
     fit-margin-bottom="0" />
  <metadata
     id="metadata7">
    <rdf:RDF>
      <cc:Work
         rdf:about="">
        <dc:format>image/svg+xml</dc:format>
        <dc:type
           rdf:resource="http://purl.org/dc/dcmitype/StillImage" />
        <dc:title></dc:title>
      </cc:Work>
    </rdf:RDF>
  </metadata>
  <g
     inkscape:label="Layer 1"
     inkscape:groupmode="layer"
     id="layer1"
     transform="translate(-29.75,-632.11218)">
    <path
       sodipodi:type="arc"
       style="fill:#000000;fill-opacity:1;stroke:#000000;stroke-width:0;stroke-miterlimit:4;stroke-opacity:1;stroke-dasharray:none;stroke-dashoffset:0"
       id="path2985"
       sodipodi:cx="75.714287"
       sodipodi:cy="722.36218"
       sodipodi:rx="21.428572"
       sodipodi:ry="21.428572"
       d="m 97.142859,722.36218 c 0,11.83468 -9.593899,21.42857 -21.428572,21.42857 -11.834674,0 -21.428572,-9.59389 -21.428572,-21.42857 0,-11.83467 9.593898,-21.42857 21.428572,-21.42857 11.834673,0 21.428572,9.5939 21.428572,21.42857 z"
       transform="matrix(0.07,0,0,0.07,46.2,700.29683)" />
    <path
       style="fill:none;stroke:#000000;stroke-width:0.5;stroke-linecap:butt;stroke-linejoin:miter;stroke-miterlimit:4;stroke-opacity:1;stroke-dasharray:none"
       d="m 30,772.36218 140,-140"
       id="path3755"
       inkscape:connector-curvature="0" />
    <path
       transform="matrix(0.07,0,0,0.07,146.2,700.29683)"
       d="m 97.142859,722.36218 c 0,11.83468 -9.593899,21.42857 -21.428572,21.42857 -11.834674,0 -21.428572,-9.59389 -21.428572,-21.42857 0,-11.83467 9.593898,-21.42857 21.428572,-21.42857 11.834673,0 21.428572,9.5939 21.428572,21.42857 z"
       sodipodi:ry="21.428572"
       sodipodi:rx="21.428572"
       sodipodi:cy="722.36218"
       sodipodi:cx="75.714287"
       id="path3759"
       style="fill:#000000;fill-opacity:1;stroke:#000000;stroke-width:0;stroke-miterlimit:4;stroke-opacity:1;stroke-dasharray:none;stroke-dashoffset:0"
       sodipodi:type="arc" />
    <path
       transform="matrix(0.07,0,0,0.07,46.2,600.29683)"
       d="m 97.142859,722.36218 c 0,11.83468 -9.593899,21.42857 -21.428572,21.42857 -11.834674,0 -21.428572,-9.59389 -21.428572,-21.42857 0,-11.83467 9.593898,-21.42857 21.428572,-21.42857 11.834673,0 21.428572,9.5939 21.428572,21.42857 z"
       sodipodi:ry="21.428572"
       sodipodi:rx="21.428572"
       sodipodi:cy="722.36218"
       sodipodi:cx="75.714287"
       id="path3761"
       style="fill:#000000;fill-opacity:1;stroke:#000000;stroke-width:0;stroke-miterlimit:4;stroke-opacity:1;stroke-dasharray:none;stroke-dashoffset:0"
       sodipodi:type="arc" />
    <path
       sodipodi:type="arc"
       style="fill:#000000;fill-opacity:1;stroke:#000000;stroke-width:0;stroke-miterlimit:4;stroke-opacity:1;stroke-dasharray:none;stroke-dashoffset:0"
       id="path3763"
       sodipodi:cx="75.714287"
       sodipodi:cy="722.36218"
       sodipodi:rx="21.428572"
       sodipodi:ry="21.428572"
       d="m 97.142859,722.36218 c 0,11.83468 -9.593899,21.42857 -21.428572,21.42857 -11.834674,0 -21.428572,-9.59389 -21.428572,-21.42857 0,-11.83467 9.593898,-21.42857 21.428572,-21.42857 11.834673,0 21.428572,9.5939 21.428572,21.42857 z"
       transform="matrix(0.07,0,0,0.07,146.2,600.29683)" />
    <text
       xml:space="preserve"
       style="font-size:9px;font-style:normal;font-weight:normal;line-height:125%;letter-spacing:0px;word-spacing:0px;fill:#000000;fill-opacity:1;stroke:none;font-family:Sans"
       x="54.800777"
       y="754.36719"
       id="text3765"
       sodipodi:linespacing="125%"><tspan
         sodipodi:role="line"
         id="tspan3767"
         x="54.800777"
         y="754.36719">(0,0)</tspan></text>
    <text
       sodipodi:linespacing="125%"
       id="text3769"
       y="754.36719"
       x="154.80078"
       style="font-size:9px;font-style:normal;font-weight:normal;line-height:125%;letter-spacing:0px;word-spacing:0px;fill:#000000;fill-opacity:1;stroke:none;font-family:Sans"
       xml:space="preserve"><tspan
         y="754.36719"
         x="154.80078"
         id="tspan3771"
         sodipodi:role="line">(10,0)</tspan></text>
    <text
       sodipodi:linespacing="125%"
       id="text3773"
       y="654.36719"
       x="54.800777"
       style="font-size:9px;font-style:normal;font-weight:normal;line-height:125%;letter-spacing:0px;word-spacing:0px;fill:#000000;fill-opacity:1;stroke:none;font-family:Sans"
       xml:space="preserve"><tspan
         y="654.36719"
         x="54.800777"
         id="tspan3775"
         sodipodi:role="line">(0,10)</tspan></text>
    <text
       xml:space="preserve"
       style="font-size:9px;font-style:normal;font-weight:normal;line-height:125%;letter-spacing:0px;word-spacing:0px;fill:#000000;fill-opacity:1;stroke:none;font-family:Sans"
       x="154.80078"
       y="654.36719"
       id="text3777"
       sodipodi:linespacing="125%"><tspan
         sodipodi:role="line"
         id="tspan3779"
         x="154.80078"
         y="654.36719">(10,10)</tspan></text>
    <path
       sodipodi:type="arc"
       style="fill:#000000;fill-opacity:1;stroke:#000000;stroke-width:0;stroke-miterlimit:4;stroke-opacity:1;stroke-dasharray:none;stroke-dashoffset:0"
       id="path3781"
       sodipodi:cx="75.714287"
       sodipodi:cy="722.36218"
       sodipodi:rx="21.428572"
       sodipodi:ry="21.428572"
       d="m 97.142859,722.36218 c 0,11.83468 -9.593899,21.42857 -21.428572,21.42857 -11.834674,0 -21.428572,-9.59389 -21.428572,-21.42857 0,-11.83467 9.593898,-21.42857 21.428572,-21.42857 11.834673,0 21.428572,9.5939 21.428572,21.42857 z"
       transform="matrix(0.07,0,0,0.07,76.2,670.29683)" />
    <text
       sodipodi:linespacing="125%"
       id="text3783"
       y="724.36719"
       x="84.800781"
       style="font-size:9px;font-style:normal;font-weight:normal;line-height:125%;letter-spacing:0px;word-spacing:0px;fill:#000000;fill-opacity:1;stroke:none;font-family:Sans"
       xml:space="preserve"><tspan
         y="724.36719"
         x="84.800781"
         id="tspan3785"
         sodipodi:role="line">(3,3)</tspan></text>
  </g>
</svg>
